<svg width="261" height="65" viewBox="0 0 261 65" fill="none" xmlns="http://www.w3.org/2000/svg">
<path d="M10.2749 20.6527C10.2749 9.79882 19.0737 1.00003 29.9275 1.00003V1.00003V29.4446H10.2749V20.6527Z" fill="#A456FB" stroke="#A456FB" stroke-width="0.805851"/>
<rect x="10.2749" y="29.4446" width="19.6526" height="6.12144" fill="#A456FB" stroke="#A456FB" stroke-width="0.805851"/>
<path fill-rule="evenodd" clip-rule="evenodd" d="M10.6315 48.1047C10.3974 46.8918 10.2748 45.6392 10.2748 44.358V35.566H29.9274V64.0106C25.1684 64.0106 20.8045 62.3191 17.4041 59.5044C14.0117 61.7644 8.57202 63.9126 2 62.7177C3.81011 61.9419 10.792 57.2874 10.5334 47.9782C10.5648 48.0214 10.5975 48.0635 10.6315 48.1047Z" fill="#A456FB"/>
<path d="M10.6315 48.1047L10.3209 48.3614L11.0271 48.0284L10.6315 48.1047ZM10.2748 35.566V35.1631H9.87186V35.566H10.2748ZM29.9274 35.566H30.3303V35.1631H29.9274V35.566ZM29.9274 64.0106V64.4136H30.3303V64.0106H29.9274ZM17.4041 59.5044L17.661 59.194L17.4301 59.0029L17.1807 59.169L17.4041 59.5044ZM2 62.7177L1.84128 62.3474L0.610885 62.8747L1.92792 63.1141L2 62.7177ZM10.5334 47.9782L10.8592 47.7412L10.0945 46.6897L10.1306 47.9894L10.5334 47.9782ZM9.87186 44.358C9.87186 45.665 9.99694 46.9432 10.2359 48.1811L11.0271 48.0284C10.7979 46.8405 10.6777 45.6135 10.6777 44.358H9.87186ZM9.87186 35.566V44.358H10.6777V35.566H9.87186ZM29.9274 35.1631H10.2748V35.969H29.9274V35.1631ZM30.3303 64.0106V35.566H29.5245V64.0106H30.3303ZM17.1471 59.8148C20.6171 62.687 25.0712 64.4136 29.9274 64.4136V63.6077C25.2656 63.6077 20.9918 61.9511 17.661 59.194L17.1471 59.8148ZM1.92792 63.1141C8.62829 64.3324 14.1727 62.1413 17.6275 59.8397L17.1807 59.169C13.8507 61.3874 8.51576 63.4929 2.07208 62.3213L1.92792 63.1141ZM10.1306 47.9894C10.2568 52.5328 8.61843 55.933 6.72782 58.2963C4.8293 60.6694 2.68461 61.9859 1.84128 62.3474L2.15872 63.088C3.1255 62.6737 5.3768 61.275 7.35708 58.7997C9.34528 56.3144 11.0685 52.7328 10.9361 47.967L10.1306 47.9894ZM10.9421 47.8481C10.9133 47.8132 10.8857 47.7776 10.8592 47.7412L10.2075 48.2152C10.2439 48.2652 10.2817 48.3139 10.3209 48.3614L10.9421 47.8481Z" fill="#A456FB"/>
<rect x="29.9275" y="1" width="210.42" height="63.0106" fill="#A456FB"/>
<path d="M36.7482 43.5053H34.8569V30.2387H36.5015L36.7756 32.5412C37.2141 31.7006 37.8354 31.0519 38.6395 30.5951C39.4618 30.12 40.3572 29.8824 41.3257 29.8824C43.153 29.8824 44.4687 30.3849 45.2728 31.39C46.0768 32.395 46.4788 33.729 46.4788 35.3919V43.5053H44.5875V35.803C44.5875 34.2498 44.2586 33.1625 43.6007 32.5412C42.9612 31.9199 42.0932 31.6093 40.9968 31.6093C39.6445 31.6093 38.5938 32.0661 37.8446 32.9798C37.1136 33.8752 36.7482 35.0721 36.7482 36.5705V43.5053ZM50.1113 43.5053V30.2387H52.0026V43.5053H50.1113ZM51.0433 26.5932C50.6595 26.5932 50.3306 26.4561 50.0565 26.182C49.7824 25.9079 49.6453 25.579 49.6453 25.1953C49.6453 24.8115 49.7824 24.4826 50.0565 24.2085C50.3306 23.9161 50.6595 23.7699 51.0433 23.7699C51.427 23.7699 51.7559 23.9161 52.03 24.2085C52.3224 24.4826 52.4686 24.8115 52.4686 25.1953C52.4686 25.579 52.3224 25.9079 52.03 26.182C51.7559 26.4561 51.427 26.5932 51.0433 26.5932ZM54.8777 36.8994C54.8777 35.5107 55.1427 34.2955 55.6726 33.2539C56.2208 32.194 56.97 31.3717 57.9202 30.787C58.8887 30.1839 60.0125 29.8824 61.2917 29.8824C62.8267 29.8824 64.1149 30.2936 65.1565 31.1159C66.2164 31.9382 66.8742 33.0346 67.1301 34.4051H65.2388C64.9829 33.4914 64.4987 32.7879 63.786 32.2945C63.0734 31.8011 62.251 31.5544 61.3191 31.5544C60.442 31.5544 59.6562 31.7737 58.9618 32.2123C58.2674 32.6509 57.7192 33.2722 57.3172 34.0762C56.9335 34.8619 56.7416 35.7939 56.7416 36.872C56.7416 37.9319 56.9243 38.8547 57.2898 39.6405C57.6553 40.4262 58.1669 41.0384 58.8248 41.477C59.5009 41.9155 60.2866 42.1348 61.1821 42.1348C62.1871 42.1348 63.0551 41.8881 63.786 41.3947C64.517 40.8831 65.0103 40.1978 65.2662 39.339H67.1849C66.9839 40.2344 66.6001 41.0201 66.0337 41.6962C65.4672 42.3724 64.7637 42.9023 63.9231 43.286C63.1008 43.6515 62.1871 43.8342 61.1821 43.8342C59.9212 43.8342 58.8156 43.551 57.8654 42.9845C56.9335 42.3998 56.2025 41.5866 55.6726 40.545C55.1427 39.5034 54.8777 38.2882 54.8777 36.8994ZM75.4774 43.8342C74.1982 43.8342 73.0652 43.5419 72.0785 42.9571C71.11 42.3724 70.3516 41.5592 69.8034 40.5176C69.2552 39.476 68.9811 38.2608 68.9811 36.872C68.9811 35.5015 69.2461 34.2955 69.776 33.2539C70.3242 32.194 71.0734 31.3717 72.0237 30.787C72.9739 30.1839 74.0794 29.8824 75.3403 29.8824C76.5464 29.8824 77.5971 30.1474 78.4925 30.6773C79.4062 31.2072 80.1097 31.9473 80.6031 32.8975C81.1147 33.8295 81.3706 34.9259 81.3706 36.1868V37.1187H70.0227L70.0775 35.7482H79.4792C79.4792 34.4691 79.0955 33.4457 78.328 32.6783C77.5788 31.8925 76.5829 31.4996 75.3403 31.4996C74.4266 31.4996 73.6226 31.7098 72.9282 32.1301C72.2521 32.5503 71.7313 33.1534 71.3658 33.9391C71.0003 34.7066 70.8176 35.6203 70.8176 36.6802C70.8176 38.4344 71.2196 39.7958 72.0237 40.7643C72.846 41.7328 74.0063 42.217 75.5048 42.217C76.5829 42.217 77.4692 41.9886 78.1636 41.5318C78.8579 41.0749 79.3239 40.408 79.5615 39.5308H81.3706C81.0234 40.9196 80.3472 41.9886 79.3422 42.7378C78.3372 43.4688 77.0489 43.8342 75.4774 43.8342ZM90.2423 30.2387H97.4238V31.8285H90.2423V30.2387ZM94.765 43.5053H92.9011V26.045H94.765V43.5053ZM98.6838 36.872C98.6838 35.5015 98.9761 34.2955 99.5609 33.2539C100.146 32.2123 100.95 31.39 101.973 30.787C102.996 30.1839 104.148 29.8824 105.427 29.8824C106.724 29.8824 107.875 30.1839 108.88 30.787C109.904 31.39 110.708 32.2123 111.292 33.2539C111.877 34.2955 112.17 35.5015 112.17 36.872C112.17 38.206 111.877 39.4029 111.292 40.4628C110.708 41.5044 109.904 42.3267 108.88 42.9297C107.875 43.5327 106.724 43.8342 105.427 43.8342C104.148 43.8342 102.996 43.5327 101.973 42.9297C100.95 42.3267 100.146 41.5044 99.5609 40.4628C98.9761 39.4029 98.6838 38.206 98.6838 36.872ZM100.602 36.8446C100.602 37.8862 100.803 38.809 101.206 39.6131C101.626 40.3988 102.192 41.0201 102.905 41.477C103.636 41.9155 104.476 42.1348 105.427 42.1348C106.377 42.1348 107.208 41.9155 107.921 41.477C108.652 41.0201 109.218 40.3988 109.62 39.6131C110.041 38.809 110.251 37.8862 110.251 36.8446C110.251 35.8213 110.041 34.9168 109.62 34.131C109.218 33.3452 108.652 32.7239 107.921 32.2671C107.208 31.8103 106.377 31.5819 105.427 31.5819C104.476 31.5819 103.636 31.8103 102.905 32.2671C102.192 32.7239 101.626 33.3452 101.206 34.131C100.803 34.9168 100.602 35.8213 100.602 36.8446ZM124.414 43.5053H122.523V30.2387H124.167L124.441 32.7331L124.167 32.6509C124.441 31.8103 124.953 31.1433 125.702 30.6499C126.47 30.1382 127.365 29.8824 128.388 29.8824C129.576 29.8824 130.563 30.2113 131.349 30.8692C132.153 31.5088 132.664 32.3859 132.884 33.5006H132.472C132.655 32.3859 133.149 31.5088 133.953 30.8692C134.775 30.2113 135.798 29.8824 137.023 29.8824C138.448 29.8824 139.599 30.321 140.476 31.1981C141.353 32.0752 141.792 33.2813 141.792 34.8163V43.5053H139.955V35.2C139.955 34.067 139.663 33.1808 139.078 32.5412C138.494 31.9016 137.69 31.5819 136.666 31.5819C135.935 31.5819 135.305 31.7554 134.775 32.1026C134.245 32.4316 133.834 32.8793 133.541 33.4457C133.267 34.0122 133.13 34.6335 133.13 35.3096V43.5053H131.266V35.1726C131.266 34.0396 130.965 33.1625 130.362 32.5412C129.777 31.9199 128.982 31.6093 127.977 31.6093C127.246 31.6093 126.607 31.7737 126.058 32.1026C125.529 32.4316 125.117 32.8793 124.825 33.4457C124.551 33.994 124.414 34.6061 124.414 35.2822V43.5053ZM151.024 43.8342C149.744 43.8342 148.612 43.5419 147.625 42.9571C146.656 42.3724 145.898 41.5592 145.35 40.5176C144.802 39.476 144.527 38.2608 144.527 36.872C144.527 35.5015 144.792 34.2955 145.322 33.2539C145.871 32.194 146.62 31.3717 147.57 30.787C148.52 30.1839 149.626 29.8824 150.887 29.8824C152.093 29.8824 153.143 30.1474 154.039 30.6773C154.952 31.2072 155.656 31.9473 156.149 32.8975C156.661 33.8295 156.917 34.9259 156.917 36.1868V37.1187H145.569L145.624 35.7482H155.026C155.026 34.4691 154.642 33.4457 153.874 32.6783C153.125 31.8925 152.129 31.4996 150.887 31.4996C149.973 31.4996 149.169 31.7098 148.474 32.1301C147.798 32.5503 147.278 33.1534 146.912 33.9391C146.547 34.7066 146.364 35.6203 146.364 36.6802C146.364 38.4344 146.766 39.7958 147.57 40.7643C148.392 41.7328 149.553 42.217 151.051 42.217C152.129 42.217 153.015 41.9886 153.71 41.5318C154.404 41.0749 154.87 40.408 155.108 39.5308H156.917C156.57 40.9196 155.894 41.9886 154.888 42.7378C153.883 43.4688 152.595 43.8342 151.024 43.8342ZM165.368 43.8342C164.089 43.8342 162.956 43.5419 161.969 42.9571C161.001 42.3724 160.242 41.5592 159.694 40.5176C159.146 39.476 158.872 38.2608 158.872 36.872C158.872 35.5015 159.137 34.2955 159.667 33.2539C160.215 32.194 160.964 31.3717 161.914 30.787C162.865 30.1839 163.97 29.8824 165.231 29.8824C166.437 29.8824 167.488 30.1474 168.383 30.6773C169.297 31.2072 170 31.9473 170.494 32.8975C171.005 33.8295 171.261 34.9259 171.261 36.1868V37.1187H159.913L159.968 35.7482H169.37C169.37 34.4691 168.986 33.4457 168.219 32.6783C167.469 31.8925 166.474 31.4996 165.231 31.4996C164.317 31.4996 163.513 31.7098 162.819 32.1301C162.143 32.5503 161.622 33.1534 161.256 33.9391C160.891 34.7066 160.708 35.6203 160.708 36.6802C160.708 38.4344 161.11 39.7958 161.914 40.7643C162.737 41.7328 163.897 42.217 165.395 42.217C166.474 42.217 167.36 41.9886 168.054 41.5318C168.749 41.0749 169.215 40.408 169.452 39.5308H171.261C170.914 40.9196 170.238 41.9886 169.233 42.7378C168.228 43.4688 166.939 43.8342 165.368 43.8342ZM172.534 30.2387H179.716V31.8285H172.534V30.2387ZM177.057 43.5053H175.193V26.045H177.057V43.5053ZM189.78 30.2387L194.769 43.7794L193.371 44.8758L187.779 30.2387H189.78ZM188.163 49.2889V47.7265H189.616C190 47.7265 190.374 47.6899 190.74 47.6168C191.124 47.562 191.471 47.4067 191.781 47.1509C192.11 46.895 192.375 46.4656 192.576 45.8626L198.25 30.2387H200.196L194.111 46.5478C193.728 47.5894 193.207 48.3387 192.549 48.7955C191.909 49.2523 191.114 49.4807 190.164 49.4807C189.78 49.4807 189.424 49.4625 189.095 49.4259C188.766 49.4077 188.456 49.362 188.163 49.2889ZM200.858 36.872C200.858 35.5015 201.15 34.2955 201.735 33.2539C202.319 32.2123 203.124 31.39 204.147 30.787C205.17 30.1839 206.321 29.8824 207.601 29.8824C208.898 29.8824 210.049 30.1839 211.054 30.787C212.078 31.39 212.882 32.2123 213.466 33.2539C214.051 34.2955 214.343 35.5015 214.343 36.872C214.343 38.206 214.051 39.4029 213.466 40.4628C212.882 41.5044 212.078 42.3267 211.054 42.9297C210.049 43.5327 208.898 43.8342 207.601 43.8342C206.321 43.8342 205.17 43.5327 204.147 42.9297C203.124 42.3267 202.319 41.5044 201.735 40.4628C201.15 39.4029 200.858 38.206 200.858 36.872ZM202.776 36.8446C202.776 37.8862 202.977 38.809 203.379 39.6131C203.8 40.3988 204.366 41.0201 205.079 41.477C205.81 41.9155 206.65 42.1348 207.601 42.1348C208.551 42.1348 209.382 41.9155 210.095 41.477C210.826 41.0201 211.392 40.3988 211.794 39.6131C212.215 38.809 212.425 37.8862 212.425 36.8446C212.425 35.8213 212.215 34.9168 211.794 34.131C211.392 33.3452 210.826 32.7239 210.095 32.2671C209.382 31.8103 208.551 31.5819 207.601 31.5819C206.65 31.5819 205.81 31.8103 205.079 32.2671C204.366 32.7239 203.8 33.3452 203.379 34.131C202.977 34.9168 202.776 35.8213 202.776 36.8446ZM226.23 30.2387H228.121V43.5053H226.476L226.23 41.2577C225.864 42.0252 225.252 42.6465 224.393 43.1216C223.553 43.5967 222.611 43.8342 221.57 43.8342C220.017 43.8342 218.82 43.3408 217.979 42.3541C217.157 41.3673 216.746 40.0699 216.746 38.4618V30.2113H218.664V37.8588C218.664 39.4303 218.984 40.5359 219.624 41.1754C220.282 41.815 221.131 42.1348 222.173 42.1348C223.452 42.1348 224.448 41.7236 225.161 40.9013C225.873 40.0608 226.23 38.8547 226.23 37.2832V30.2387ZM234.336 37.6121H232.965C232.91 36.9543 232.856 36.1411 232.801 35.1726C232.746 34.2041 232.7 33.1442 232.664 31.993C232.646 30.8418 232.636 29.6814 232.636 28.5119V23.8796H234.692V28.5119C234.692 29.6997 234.674 30.8692 234.637 32.0204C234.619 33.1716 234.582 34.2315 234.528 35.2C234.491 36.1685 234.427 36.9725 234.336 37.6121ZM233.678 43.8891C233.203 43.8891 232.792 43.7246 232.444 43.3957C232.116 43.0485 231.951 42.6373 231.951 42.1622C231.951 41.6871 232.116 41.2851 232.444 40.9562C232.792 40.6272 233.203 40.4628 233.678 40.4628C234.135 40.4628 234.528 40.6272 234.857 40.9562C235.204 41.2851 235.377 41.6871 235.377 42.1622C235.377 42.6373 235.204 43.0485 234.857 43.3957C234.528 43.7246 234.135 43.8891 233.678 43.8891Z" fill="white"/>
<rect x="29.9275" y="1" width="210.42" height="63.0106" stroke="#A456FB" stroke-width="0.805851"/>
<path d="M260 20.6526C260 9.79879 251.201 1 240.347 1V1V29.4446H260V20.6526Z" fill="#A456FB" stroke="#A456FB" stroke-width="0.805851"/>
<rect width="19.6526" height="6.12144" transform="matrix(-1 0 0 1 260 29.4446)" fill="#A456FB" stroke="#A456FB" stroke-width="0.805851"/>
<path d="M260 44.358C260 55.2118 251.201 64.0106 240.347 64.0106V64.0106V35.566H260V44.358Z" fill="#A456FB" stroke="#A456FB" stroke-width="0.805851"/>
</svg>
